<svg width="24" height="24" viewBox="0 0 24 24" fill="none" xmlns="http://www.w3.org/2000/svg">
<path d="M11 4H4C3.46957 4 2.96086 4.21071 2.58579 4.58579C2.21071 4.96086 2 5.46957 2 6V18C2 18.5304 2.21071 19.0391 2.58579 19.4142C2.96086 19.7893 3.46957 20 4 20H16C16.5304 20 17.0391 19.7893 17.4142 19.4142C17.7893 19.0391 18 18.5304 18 18V11" stroke="white" stroke-width="2" stroke-linecap="round" stroke-linejoin="round"/>
<path d="M18.5 2.5C18.8978 2.5 19.2794 2.65804 19.5607 2.93934C19.842 3.22064 20 3.60218 20 4V4C20 4.39782 19.842 4.77936 19.5607 5.06066L10 14.6213L7 15L7.37868 12L16.9393 2.43934C17.2206 2.15804 17.6022 2 18 2C18.3978 2 18.7794 2.15804 19.0607 2.43934L19.5607 2.93934C19.842 3.22064 20 3.60218 20 4V4C20 4.39782 19.842 4.77936 19.5607 5.06066L18.5 2.5Z" stroke="white" stroke-width="2" stroke-linecap="round" stroke-linejoin="round"/>
</svg>